# xmcd CD database file
#
# Track frame offsets:
#	150
#	18079
#	39229
#	55698
#	71553
#	87570
#	102917
#	122556
#	139128
#	156435
#	175150
#	187127
#	205576
#	225551
#	244745
#	260497
#	282097
#
# Disc length: 3987 seconds
#
# Revision: 1
# Processed by: cddbd v1.5.1PL0 Copyright (c) Steve Scherf et al.
# Submitted via: CDex 1.51
#
DISCID=e70f9111
DTITLE=MR. BIG - BIG BIGGER BIGGEST
DYEAR=1900
DGENRE=
TTITLE0=Daddy, Brother, Lover, Litttle Boy
TTITLE1=Take Cover
TTITLE2=Stay Together
TTITLE3=Wild World
TTITLE4=Green-Tinted Sixties Mind
TTITLE5=Unnattural
TTITLE6=Goin' Where the Wind Blows
TTITLE7=Not One Night
TTITLE8=Rock and Roll Over
TTITLE9=Promise Her the Moon
TTITLE10=Seven Impossible Days
TTITLE11=Nothing But Love(Live Version)
TTITLE12=Just Take My Heart
TTITLE13=Colorado Bulldog
TTITLE14=To Be With You
TTITLE15=Addicted To That Rush
TTITLE16=I Love You Japan
EXTD=
EXTT0=The Electric Drill Song
EXTT1=
EXTT2=
EXTT3=
EXTT4=
EXTT5=
EXTT6=
EXTT7=
EXTT8=
EXTT9=
EXTT10=
EXTT11=
EXTT12=
EXTT13=
EXTT14=
EXTT15=
EXTT16=Bonus Track\n(Song for Makita and Japanese Fans)
PLAYORDER=
